PathFileType	4	(X/Y/Z)	1H_rest_med_left.trc
DataRate	CameraRate	NumFrames	NumMarkers	Units	OrigDataRate	OrigDataStartFrame	OrigNumFrames
250.00	250.00	16	18	mm	250.00	17609	23478
Frame#	Time	c7	r_should	l_should	clavicle	r_upa	r_elb_l	r_elb_m	r_low	r_wri_l	r_wri_m	r_met	l_upa	l_elb_l	l_elb_m	l_low	l_wri_l	l_wri_m	l_met
	X1	Y1	Z1	X2	Y2	Z2	X3	Y3	Z3	X4	Y4	Z4	X5	Y5	Z5	X6	Y6	Z6	X7	Y7	Z7	X8	Y8	Z8	X9	Y9	Z9	X10	Y10	Z10	X11	Y11	Z11	X12	Y12	Z12	X13	Y13	Z13	X14	Y14	Z14	X15	Y15	Z15	X16	Y16	Z16	X17	Y17	Z17	X18	Y18	Z18
17609	70.43200	621.42419	1418.08313	264.70984	684.88409	1364.21814	420.27988	659.93811	1366.94678	99.73314	760.31482	1288.70618	250.87238	691.99152	1157.07874	492.91379	689.33759	1068.25476	514.78290	637.24493	1032.39160	449.67078	748.02625	894.59991	497.69623	711.43317	807.87036	497.44391	773.23724	830.67096	466.75494	814.24164	754.81592	493.81570	682.36615	1186.13916	24.90782	699.25610	1113.71301	2.87725	733.38403	1061.37732	81.36227	794.41180	1179.52795	9.87974	831.87946	1241.11438	39.75961	889.37714	1197.27136	33.26585	877.02594	1306.43713	7.45754
17610	70.43600	621.48657	1418.07739	264.69116	684.91437	1364.22717	420.27213	660.06006	1366.93274	99.69702	760.36945	1288.70215	250.87697	692.00531	1157.11646	492.94977	689.34381	1068.29626	514.82880	637.26965	1032.43713	449.68301	748.01343	894.61725	497.74060	711.44098	807.90472	497.51401	773.22443	830.67596	466.81332	814.22583	754.82874	493.87982	682.42395	1186.07520	24.91298	699.39484	1113.60242	2.92221	733.34235	1061.30127	81.43769	794.81482	1179.15076	9.86327	832.51868	1240.60596	39.73920	889.83765	1196.53381	33.25115	877.90515	1305.79761	7.40987
17611	70.44000	621.55011	1418.07434	264.67551	684.94696	1364.24048	420.26114	660.18024	1366.92554	99.67060	760.42566	1288.70227	250.88608	692.00983	1157.14624	492.96921	689.34058	1068.32153	514.85132	637.28638	1032.47205	449.68954	747.99994	894.63617	497.78317	711.44806	807.92474	497.55997	773.21814	830.69965	466.86185	814.21759	754.84418	493.94342	682.48389	1186.01416	24.92265	699.52393	1113.48035	2.96151	733.36993	1061.19104	81.57463	795.21887	1178.77271	9.84526	833.15912	1240.10583	39.73436	890.29968	1195.80603	33.22385	878.90649	1305.37244	7.10990
17612	70.44400	621.61548	1418.07361	264.65195	684.98444	1364.25159	420.25092	660.30420	1366.91797	99.64529	760.47919	1288.70349	250.89279	692.00482	1157.16003	492.97345	689.33112	1068.33044	514.86084	637.29236	1032.48108	449.68976	747.99451	894.65454	497.81738	711.44733	807.93280	497.57907	773.22522	830.71985	466.91595	814.21942	754.86432	493.99835	682.54315	1185.94897	24.94259	699.63745	1113.35315	2.97936	733.47675	1061.03796	81.79379	795.61780	1178.39709	9.81024	833.80316	1239.61230	39.71246	890.76636	1195.08813	33.16673	880.04938	1305.21802	6.46524
17613	70.44800	621.68408	1418.07300	264.61673	685.01825	1364.25769	420.23538	660.42859	1366.90161	99.62231	760.53918	1288.70654	250.90190	692.00067	1157.15576	492.95953	689.31555	1068.32214	514.85522	637.29126	1032.46521	449.68787	747.99982	894.67358	497.84558	711.44775	807.92780	497.58170	773.23615	830.72742	466.95950	814.23059	754.87854	494.05283	682.60309	1185.86414	24.97676	699.73914	1113.20789	2.99944	733.36566	1060.92554	81.83006	796.02386	1178.01562	9.76950	834.45624	1239.09692	39.66272	891.24023	1194.38000	33.09061	881.00458	1304.64270	6.26824
17614	70.45200	621.75385	1418.06738	264.58118	685.04382	1364.26050	420.22568	660.54376	1366.87805	99.60594	760.60706	1288.70850	250.91612	691.99188	1157.14746	492.94388	689.30249	1068.31616	514.84924	637.27899	1032.44299	449.69458	748.01300	894.68994	497.87222	711.45221	807.91479	497.58554	773.25763	830.74390	466.99634	814.24872	754.89209	494.10379	682.66229	1185.77344	25.02715	699.82745	1113.05676	3.03450	733.20459	1060.82288	81.82488	796.43176	1177.62634	9.74017	835.10999	1238.58386	39.63298	891.69684	1193.67212	32.96783	881.87415	1304.00159	6.19413
17615	70.45600	621.81775	1418.06006	264.53976	685.06750	1364.26123	420.21707	660.66083	1366.85901	99.58102	760.67700	1288.71533	250.92363	691.99408	1157.14844	492.94177	689.30072	1068.32043	514.85925	637.28333	1032.43347	449.69788	748.03314	894.71021	497.90115	711.46661	807.90942	497.60684	773.28845	830.77008	467.02322	814.26624	754.90747	494.14868	682.72388	1185.68237	25.07486	699.91937	1112.91333	3.09113	733.05719	1060.73608	81.84442	796.84808	1177.23303	9.70855	835.77045	1238.07202	39.61636	892.16034	1192.97534	32.84610	882.76392	1303.30542	6.12260
17616	70.46000	621.87799	1418.06006	264.49878	685.08765	1364.26208	420.20367	660.77539	1366.84607	99.55491	760.74609	1288.72327	250.92665	692.01141	1157.16418	492.95490	689.31140	1068.34326	514.87872	637.30096	1032.44458	449.71201	748.05518	894.73456	497.92535	711.48975	807.92773	497.64758	773.32086	830.78186	467.04678	814.29291	754.92737	494.18491	682.78650	1185.59021	25.12284	700.02869	1112.78735	3.16797	732.94507	1060.67371	81.89893	797.26434	1176.83215	9.68381	836.41156	1237.54968	39.56425	892.63013	1192.25940	32.74551	883.63904	1302.59985	6.06843
17617	70.46400	621.93542	1418.06445	264.46597	685.10120	1364.25867	420.18729	660.89032	1366.84265	99.53408	760.81708	1288.72131	250.93845	692.03766	1157.19543	492.98245	689.33557	1068.37805	514.90631	637.33923	1032.47192	449.72498	748.07733	894.74805	497.94495	711.52600	807.96515	497.70209	773.35419	830.78943	467.08591	814.32593	754.94214	494.21558	682.84723	1185.50110	25.17198	700.15698	1112.69507	3.25568	732.87213	1060.61340	81.97735	797.66083	1176.43481	9.65994	837.04572	1237.00159	39.51181	893.10193	1191.51587	32.67790	884.50098	1301.90979	6.00605
17618	70.46800	622.00262	1418.07422	264.44073	685.11279	1364.26062	420.17908	660.99908	1366.84058	99.51036	760.87946	1288.70776	250.95274	692.06964	1157.22656	493.01010	689.36676	1068.40967	514.94147	637.38898	1032.50562	449.73416	748.10138	894.75433	497.97293	711.57019	808.00311	497.75821	773.38971	830.79907	467.13269	814.35968	754.95190	494.25620	682.90784	1185.41357	25.22930	700.29431	1112.61621	3.34463	732.81744	1060.56433	82.07831	798.06030	1176.03235	9.64470	837.69440	1236.45569	39.48260	893.56909	1190.75818	32.62451	885.39508	1301.18823	5.93926
17619	70.47200	622.07483	1418.08606	264.41928	685.13611	1364.26880	420.17249	661.11481	1366.84241	99.48496	760.93744	1288.69434	250.97250	692.09052	1157.24731	493.03537	689.38910	1068.43140	514.96661	637.43945	1032.53516	449.73712	748.12610	894.76416	498.00604	711.62506	808.03113	497.80557	773.43213	830.80426	467.17899	814.40210	754.96912	494.30652	682.97620	1185.33484	25.28818	700.42926	1112.52246	3.42757	732.74811	1060.50342	82.17634	798.46649	1175.61694	9.62944	838.35876	1235.92590	39.47908	894.03949	1189.99255	32.59521	886.26276	1300.49390	5.88840
17620	70.47600	622.14423	1418.09937	264.40567	685.16864	1364.26990	420.16104	661.23499	1366.84375	99.46066	760.99878	1288.69031	250.99272	692.10529	1157.25256	493.03680	689.40558	1068.44104	514.97461	637.48096	1032.55151	449.73019	748.15771	894.77191	498.03568	711.68286	808.04199	497.82776	773.48218	830.81573	467.22076	814.45215	754.99463	494.36206	683.04370	1185.26416	25.34864	700.55969	1112.41528	3.49041	732.66992	1060.40906	82.25677	798.87653	1175.20117	9.61841	839.03375	1235.39062	39.47099	894.50214	1189.21851	32.56554	887.15381	1299.77515	5.83274
17621	70.48000	622.21271	1418.10535	264.39133	685.20905	1364.27185	420.15482	661.34717	1366.84045	99.43551	761.06226	1288.68359	251.00357	692.11578	1157.24280	493.02237	689.41534	1068.42737	514.96014	637.52338	1032.54346	449.71463	748.19501	894.77826	498.06265	711.73901	808.04004	497.83008	773.53540	830.82544	467.26239	814.51294	755.01801	494.41260	683.11578	1185.18787	25.42089	700.67987	1112.28308	3.54627	732.57019	1060.26831	82.30818	799.28448	1174.78198	9.62012	839.70209	1234.83203	39.44175	894.96759	1188.45129	32.50994	888.04327	1299.04724	5.77012
17622	70.48400	622.27771	1418.10254	264.37979	685.24207	1364.26233	420.15384	661.45520	1366.82422	99.41431	761.12408	1288.67493	251.01265	692.12061	1157.22009	492.99371	689.42236	1068.39868	514.93689	637.56201	1032.50745	449.69391	748.24146	894.77734	498.08258	711.78162	808.02319	497.83029	773.59076	830.83313	467.29657	814.57837	755.02905	494.45758	683.17963	1185.10645	25.50228	700.78467	1112.12915	3.59736	732.45129	1060.08325	82.34707	799.69464	1174.36169	9.61367	840.34924	1234.27417	39.38688	895.43494	1187.68469	32.42870	888.91058	1298.33337	5.70964
17623	70.48800	622.33795	1418.09314	264.37967	685.27374	1364.25256	420.15576	661.55945	1366.80078	99.40458	761.18933	1288.67004	251.02028	692.12842	1157.19751	492.97440	689.43237	1068.37207	514.92224	637.59357	1032.46057	449.68292	748.30225	894.77515	498.09344	711.82617	808.00238	497.82971	773.65076	830.83691	467.31787	814.65125	755.04163	494.49988	683.24084	1185.01746	25.58367	700.88593	1111.96106	3.67686	732.33435	1059.88953	82.38339	800.10010	1173.93530	9.59843	841.00085	1233.70996	39.34526	895.90570	1186.92456	32.34286	889.79382	1297.57349	5.64026
17624	70.49200	622.39075	1418.08301	264.36691	685.31079	1364.24219	420.15073	661.66211	1366.77747	99.39482	761.25623	1288.66797	251.03072	692.15656	1157.18274	492.97198	689.45557	1068.35620	514.91870	637.62054	1032.42688	449.67703	748.37256	894.77588	498.09518	711.89044	807.98376	497.84161	773.71960	830.85431	467.32803	814.72620	755.05542	494.53729	683.30481	1184.92480	25.66183	700.99475	1111.79834	3.78285	732.26501	1059.72375	82.44170	800.51740	1173.49487	9.59010	841.66669	1233.14917	39.33104	896.37079	1186.17053	32.22113	890.65979	1296.80701	5.57226
